0
SECTION
2
HEADER
9
$INSUNITS
70
4
9
$ACADVER
1
AC1014
9
$HANDSEED
5
FFFF
0
ENDSEC
0
SECTION
2
TABLES
0
TABLE
2
VPORT
5
8
100
AcDbSymbolTable
0
ENDTAB
0
TABLE
2
LTYPE
5
5
100
AcDbSymbolTable
0
LTYPE
5
14
100
AcDbSymbolTableRecord
100
AcDbLinetypeTableRecord
2
BYBLOCK
70
0
0
LTYPE
5
15
100
AcDbSymbolTableRecord
100
AcDbLinetypeTableRecord
2
BYLAYER
70
0
0
ENDTAB
0
TABLE
2
LAYER
5
2
100
AcDbSymbolTable
70
2
0
LAYER
5
50
100
AcDbSymbolTableRecord
100
AcDbLayerTableRecord
2
0
70
0
6
CONTINUOUS
0
ENDTAB
0
TABLE
2
STYLE
5
3
100
AcDbSymbolTable
70
1
0
STYLE
5
11
100
AcDbSymbolTableRecord
100
AcDbTextStyleTableRecord
2
STANDARD
70
0
0
ENDTAB
0
TABLE
2
VIEW
5
6
100
AcDbSymbolTable
70
0
0
ENDTAB
0
TABLE
2
UCS
5
7
100
AcDbSymbolTable
70
0
0
ENDTAB
0
TABLE
2
APPID
5
9
100
AcDbSymbolTable
70
2
0
APPID
5
12
100
AcDbSymbolTableRecord
100
AcDbRegAppTableRecord
2
ACAD
70
0
0
ENDTAB
0
TABLE
2
DIMSTYLE
5
A
100
AcDbSymbolTable
70
1
0
ENDTAB
0
TABLE
2
BLOCK_RECORD
5
1
100
AcDbSymbolTable
70
1
0
BLOCK_RECORD
5
1F
100
AcDbSymbolTableRecord
100
AcDbBlockTableRecord
2
*MODEL_SPACE
0
BLOCK_RECORD
5
1B
100
AcDbSymbolTableRecord
100
AcDbBlockTableRecord
2
*PAPER_SPACE
0
ENDTAB
0
ENDSEC
0
SECTION
2
BLOCKS
0
BLOCK
5
20
100
AcDbEntity
100
AcDbBlockBegin
2
*MODEL_SPACE
0
ENDBLK
5
21
100
AcDbEntity
100
AcDbBlockEnd
0
BLOCK
5
1C
100
AcDbEntity
100
AcDbBlockBegin
2
*PAPER_SPACE
0
ENDBLK
5
1D
100
AcDbEntity
100
AcDbBlockEnd
0
ENDSEC
0
SECTION
2
ENTITIES
0
LWPOLYLINE
5
100
100
AcDbEntity
8
0
100
AcDbPolyline
90
58
70
1
43
0.0
10
3.0000000447034836
20
11.618950027079864
10
3.0000000447034836
20
19.000000283122063
10
6.0000000894069672
20
19.000000283122063
10
6.0000000894069672
20
13.200378741805727
42
-0.51591462375198582
10
10.500000000000016
20
-9.9999999999999929
10
24.499999999999993
20
-9.9999999999999947
42
-0.51591462375198593
10
28.999999910593033
20
13.200378741805725
10
28.999999910593033
20
19.000000283122063
10
31.999999955296516
20
19.000000283122063
10
31.999999955296516
20
11.618950027079862
42
7.8729832250433676
10
38.000000044703484
20
11.618950027079864
10
38.000000044703484
20
19.000000283122063
10
41.000000089406967
20
19.000000283122063
10
41.000000089406967
20
13.200378741805729
42
-0.51591462375198593
10
45.500000000000014
20
-9.9999999999999947
10
59.499999999999986
20
-9.9999999999999947
42
-0.51591462375198593
10
63.999999910593033
20
13.200378741805725
10
63.999999910593033
20
19.000000283122063
10
66.999999955296516
20
19.000000283122063
10
66.999999955296516
20
11.618950027079862
42
7.8729832250433676
10
73.000000044703484
20
11.618950027079864
10
73.000000044703484
20
19.000000283122063
10
76.000000089406967
20
19.000000283122063
10
76.000000089406967
20
13.200378741805727
42
-0.42369338480456192
10
83.000001236796379
20
-6.4226137859358126
10
83.000001236796379
20
-9.9999999999999982
42
0.34380805966536038
10
90.00772032158018
20
-20
10
100
20
-20
10
100
20
-25
10
-100
20
-25
10
-100
20
-20
10
-90.000001341104507
20
-20.000000298023224
42
0.2673087161985635
10
-83.000001236796379
20
-10
10
-83.000001236796379
20
-6.4226137859358143
42
-0.42369338480456192
10
-76.000000089406967
20
13.200378741805725
10
-76.000000089406967
20
19.000000283122063
10
-73.000000044703484
20
19.000000283122063
10
-73.000000044703484
20
11.618950027079862
42
7.8729832250433676
10
-66.999999955296516
20
11.618950027079864
10
-66.999999955296516
20
19.000000283122063
10
-63.999999910593033
20
19.000000283122063
10
-63.999999910593033
20
13.200378741805725
42
-0.51591462375198605
10
-59.499999999999993
20
-9.9999999999999964
10
-45.500000000000007
20
-10
42
-0.51591462375198616
10
-41.000000089406967
20
13.200378741805725
10
-41.000000089406967
20
19.000000283122063
10
-38.000000044703484
20
19.000000283122063
10
-38.000000044703484
20
11.618950027079862
42
7.8729832250433676
10
-31.999999955296516
20
11.618950027079864
10
-31.999999955296516
20
19.000000283122063
10
-28.999999910593033
20
19.000000283122063
10
-28.999999910593033
20
13.200378741805727
42
-0.51591462375198593
10
-24.499999999999989
20
-9.9999999999999947
10
-10.500000000000009
20
-9.9999999999999964
42
-0.51591462375198593
10
-6.0000000894069672
20
13.200378741805725
10
-6.0000000894069672
20
19.000000283122063
10
-3.0000000447034836
20
19.000000283122063
10
-3.0000000447034836
20
11.618950027079862
42
7.8729832250433676
0
ENDSEC
0
SECTION
2
OBJECTS
0
DICTIONARY
5
C
100
AcDbDictionary
3
ACAD_GROUP
350
D
3
ACAD_MLINESTYLE
350
17
0
DICTIONARY
5
D
100
AcDbDictionary
0
DICTIONARY
5
1A
330
C
100
AcDbDictionary
0
DICTIONARY
5
17
100
AcDbDictionary
0
ENDSEC
0
EOF
